<?xml version="1.0" standalone="no"?>
<!DOCTYPE svg PUBLIC "-//W3C//DTD SVG 20010904//EN"
 "http://www.w3.org/TR/2001/REC-SVG-20010904/DTD/svg10.dtd">
<svg version="1.0" xmlns="http://www.w3.org/2000/svg"
 width="225.000000pt" height="225.000000pt" viewBox="0 0 225.000000 225.000000"
 preserveAspectRatio="xMidYMid meet">
<g transform="translate(0.000000,225.000000) scale(0.100000,-0.100000)"
fill="#F79E10" stroke="none">
<path d="M1079 1936 c-44 -22 -743 -587 -756 -609 -7 -12 -12 -41 -13 -64 0
-33 6 -48 30 -72 17 -16 40 -31 53 -33 l22 -3 3 -327 c2 -292 1 -328 -13 -328
-33 0 -77 -32 -91 -66 -14 -32 -13 -39 3 -72 10 -20 29 -42 43 -49 20 -10 191
-12 778 -10 l754 2 29 33 c18 20 29 43 29 61 0 40 -43 89 -86 97 l-34 6 0 323
0 323 30 10 c49 18 80 59 80 106 -1 55 -14 75 -88 134 -42 34 -68 48 -82 45
-25 -7 -86 43 -82 67 4 24 -80 90 -111 88 -31 -3 -86 41 -86 68 -1 16 -43 56
-147 139 -191 153 -207 161 -265 131z"/>
</g>
</svg>
