<?xml version="1.0" standalone="no"?>
<!DOCTYPE svg PUBLIC "-//W3C//DTD SVG 20010904//EN"
 "http://www.w3.org/TR/2001/REC-SVG-20010904/DTD/svg10.dtd">
<svg version="1.0" xmlns="http://www.w3.org/2000/svg"
 width="700.000000pt" height="700.000000pt" viewBox="0 0 700.000000 700.000000"
 preserveAspectRatio="xMidYMid meet">
<metadata>
Created by potrace 1.14, written by Peter Selinger 2001-2017
</metadata>
<g transform="translate(0.000000,700.000000) scale(0.100000,-0.100000)"
fill="#000000" stroke="none">
<path d="M3920 6399 c-52 -39 -120 -88 -150 -110 -548 -399 -1276 -929 -1340
-974 -43 -30 -293 -213 -312 -229 -17 -12 -18 -42 -18 -362 l0 -349 268 -1
267 -1 370 -133 c204 -73 413 -148 465 -167 52 -19 113 -40 135 -48 70 -24
237 -83 340 -120 116 -43 210 -76 280 -99 28 -9 59 -21 70 -26 11 -5 67 -25
125 -45 441 -153 523 -187 611 -245 249 -166 386 -426 393 -743 l2 -122 262
-3 262 -2 0 1227 -1 1228 -105 75 c-59 41 -113 81 -123 88 -31 23 -186 137
-208 152 -12 8 -136 98 -275 200 -138 102 -315 231 -393 287 -77 57 -150 110
-162 119 -57 42 -414 301 -434 314 -12 8 -27 20 -33 25 -28 25 -185 135 -193
135 -4 0 -51 -32 -103 -71z m-29 -1581 c1 -122 -2 -172 -11 -178 -6 -4 -208
-5 -242 -1 -5 1 -8 60 -8 131 l0 130 130 0 130 0 1 -82z m526 -48 c1 -93 -2
-130 -10 -131 -67 -4 -231 -2 -240 3 -8 5 -12 50 -13 133 l0 125 131 0 131 0
1 -130z m-525 -495 c2 -55 2 -114 0 -131 l-3 -32 -130 -1 -129 -2 0 129 c0 71
2 131 4 133 2 2 61 4 130 4 l125 0 3 -100z m514 96 c7 -1 11 -43 11 -130 l0
-128 -131 1 -131 1 0 125 c-1 69 2 127 6 130 6 4 207 5 245 1z"/>
<path d="M350 2275 l0 -1575 525 0 525 0 0 1575 0 1575 -525 0 -525 0 0 -1575z"/>
<path d="M1926 2568 c1 -706 2 -1286 3 -1289 1 -6 48 -20 506 -145 365 -99
399 -109 530 -144 73 -20 180 -49 310 -85 45 -12 228 -62 480 -131 50 -13 132
-35 182 -48 l93 -25 167 65 c93 36 191 74 218 84 28 10 145 55 260 100 116 45
233 90 260 99 28 10 133 51 235 90 102 40 201 78 220 85 19 7 136 52 260 100
124 48 250 96 280 108 30 11 69 27 85 33 17 7 88 35 158 61 l128 49 -5 55
c-21 220 -196 413 -413 459 -36 7 -392 11 -1130 11 l-1077 0 -260 86 c-144 48
-264 88 -268 90 -3 2 0 23 7 46 15 47 106 301 111 306 1 2 94 -38 207 -88
l204 -91 499 3 c496 3 499 3 544 26 51 26 96 64 127 107 26 37 53 127 53 175
0 87 -52 190 -124 245 -38 29 -36 28 -466 181 -162 58 -414 149 -560 201 -146
53 -283 102 -305 109 -22 7 -89 31 -150 52 -60 22 -213 76 -340 121 -126 45
-252 91 -280 101 -27 10 -89 32 -136 49 l-85 31 -265 0 -264 0 1 -1282z"/>
</g>
</svg>
